<svg version="1.1" class="site__hed--logo" id="Layer_1" xmlns="http://www.w3.org/2000/svg" xmlns:xlink="http://www.w3.org/1999/xlink" x="0px" y="0px" viewBox="0 0 266 105" enable-background="new 0 0 266 105" xml:space="preserve">
<path fill="#25A9E0" d="M49.3,94.2h7.6v1.6h-5.8v2.8h5.2v1.6h-5.2v4.2h-1.8V94.2z"></path>
<path fill="#25A9E0" d="M62.7,99.3L62.7,99.3c0-2.9,2.2-5.3,5.4-5.3c3.1,0,5.3,2.4,5.3,5.3v0c0,2.9-2.2,5.3-5.4,5.3
		C64.9,104.6,62.7,102.2,62.7,99.3z M71.6,99.3L71.6,99.3c0-2-1.4-3.7-3.5-3.7c-2,0-3.5,1.6-3.5,3.6v0c0,2,1.4,3.6,3.5,3.6
		C70.1,102.9,71.6,101.3,71.6,99.3z"></path>
<path fill="#25A9E0" d="M80,94.2h4.6c1.3,0,2.3,0.4,3,1c0.5,0.6,0.8,1.3,0.8,2.2v0c0,1.7-1,2.7-2.4,3.1l2.8,3.9h-2.1l-2.5-3.6h-2.3
		v3.6H80V94.2z M84.5,99.2c1.3,0,2.1-0.7,2.1-1.7v0c0-1.1-0.8-1.7-2.1-1.7h-2.6v3.4H84.5z"></path>
<path fill="#25A9E0" d="M103.3,99.3L103.3,99.3c0-2.9,2.2-5.3,5.3-5.3c1.8,0,2.9,0.5,3.9,1.4l-1.1,1.4c-0.8-0.7-1.6-1.1-2.9-1.1
		c-1.9,0-3.3,1.7-3.3,3.6v0c0,2.1,1.4,3.7,3.5,3.7c1,0,1.8-0.3,2.5-0.8v-1.9h-2.6v-1.6h4.4v4.3c-1,0.9-2.5,1.6-4.3,1.6
		C105.4,104.6,103.3,102.3,103.3,99.3z"></path>
<path fill="#25A9E0" d="M119.2,99.3L119.2,99.3c0-2.9,2.2-5.3,5.4-5.3c3.1,0,5.3,2.4,5.3,5.3v0c0,2.9-2.2,5.3-5.4,5.3
		C121.4,104.6,119.2,102.2,119.2,99.3z M128,99.3L128,99.3c0-2-1.4-3.7-3.5-3.7c-2,0-3.5,1.6-3.5,3.6v0c0,2,1.4,3.6,3.5,3.6
		C126.6,102.9,128,101.3,128,99.3z"></path>
<path fill="#25A9E0" d="M134.9,94.2h2l3.1,7.9l3.1-7.9h1.9l-4.2,10.3h-1.6L134.9,94.2z"></path>
<path fill="#25A9E0" d="M151.1,94.2h7.6v1.6h-5.8v2.7h5.1v1.6h-5.1v2.7h5.9v1.6h-7.7V94.2z"></path>
<path fill="#25A9E0" d="M165.3,94.2h4.6c1.3,0,2.3,0.4,3,1c0.5,0.6,0.8,1.3,0.8,2.2v0c0,1.7-1,2.7-2.4,3.1l2.8,3.9h-2.1l-2.5-3.6
		h-2.3v3.6h-1.8V94.2z M169.8,99.2c1.3,0,2.1-0.7,2.1-1.7v0c0-1.1-0.8-1.7-2.1-1.7h-2.6v3.4H169.8z"></path>
<path fill="#25A9E0" d="M180.3,94.2h1.7l5.5,7.1v-7.1h1.8v10.2h-1.5l-5.6-7.3v7.3h-1.8V94.2z"></path>
<path fill="#25A9E0" d="M195.8,99.3L195.8,99.3c0-2.9,2.2-5.3,5.4-5.3c3.1,0,5.3,2.4,5.3,5.3v0c0,2.9-2.2,5.3-5.4,5.3
		C198,104.6,195.8,102.2,195.8,99.3z M204.6,99.3L204.6,99.3c0-2-1.4-3.7-3.5-3.7c-2,0-3.5,1.6-3.5,3.6v0c0,2,1.4,3.6,3.5,3.6
		C203.2,102.9,204.6,101.3,204.6,99.3z"></path>
<path fill="#25A9E0" d="M213,94.2h4.6c1.3,0,2.3,0.4,3,1c0.5,0.6,0.8,1.3,0.8,2.2v0c0,1.7-1,2.7-2.4,3.1l2.8,3.9h-2.1l-2.5-3.6
		h-2.3v3.6H213V94.2z M217.5,99.2c1.3,0,2.1-0.7,2.1-1.7v0c0-1.1-0.8-1.7-2.1-1.7h-2.6v3.4H217.5z"></path>
<rect x="59.5" y="33.5" fill="#1B75BB" width="7.3" height="49.4"></rect>
<polygon fill="#1B75BB" points="85.8,33.5 78.5,33.5 78.5,82.9 112.5,82.9 112.5,76.3 85.8,76.3 "></polygon>
<polygon fill="#1B75BB" points="127.8,33.5 120.4,33.5 120.4,82.9 154.4,82.9 154.4,76.3 127.8,76.3 "></polygon>
<path fill="#1B75BB" d="M166.3,61.5v-28h-7.2v28c0,6.8,2.2,12.5,6.3,16.3c3.7,3.4,9.1,5.3,15.1,5.3c13.1,0,20.8-8.1,20.8-21.6v-28
  	h-7.2v28c0,9.5-5.1,15.2-13.6,15.2C171.7,76.7,166.3,71.1,166.3,61.5z"></path>
<polygon fill="#1B75BB" points="223,33.6 213.6,33.6 213.6,83 221,83 221,42.8 239.2,67.9 240,67.9 258.6,43 258.6,83 266,83
  	266,33.6 256.6,33.6 239.8,56.7 "></polygon>
<path fill="#25A9E0" d="M49,75.5c-0.6-1.7-1.3-3.3-1.9-4.7c-0.2-0.4-0.4-0.8-0.5-1.2c-0.1-0.4-0.1-0.7,0.2-0.8l0.1-0.1l-0.1-0.3
  	c0-0.1-0.1-0.2-0.1-0.3c-0.1-0.1-0.2-0.3-0.3-0.4c-0.9-1.4-2-3-2.5-4.8c-0.1-0.2-0.1-0.5-0.2-0.7c-0.3-0.8-0.5-1.5-0.5-2.4
  	c0-0.1,0-0.3-0.1-0.3l0,0c0-0.2,0-0.3,0-0.5l0-0.5l-0.3,0c-0.5,0-1-0.1-1.5-0.3L40.9,58l-0.2,0.2c-0.1,0.1-0.1,0.1-0.2,0.1
  	c-0.3,0.2-0.3,0.7-0.1,1c0,0,0,0.1,0,0.1c0,0.2,0,0.3-0.1,0.5l0,0.1c0,0.1,0,0.1,0,0.2c0,0-0.1,0-0.2,0c0,0,0,0-0.1,0c0,0,0,0,0,0
  	c0,0,0,0,0-0.1c0-0.2-0.1-0.3-0.1-0.5l-0.1-0.4l-0.9,0c-0.5,0-1-0.1-1.5-0.1l-7.8-0.4c-0.1,0-0.2,0-0.2-0.1c0,0-0.1-0.1,0-0.2
  	c0-0.3-0.1-0.5-0.2-0.6c0-0.1-0.1-0.1-0.1-0.2c-0.1-0.3-0.3-0.3-0.4-0.3c-2.5,0-5-0.1-7.5-0.1l-2.3,0l-0.1,0.3
  	c0,0.1-0.1,0.2-0.1,0.3c0,0.1-0.1,0.3,0,0.4l0.1,0.1c0.1,0.2,0.3,0.4,0.5,0.5c0.3,0.2,0.3,0.2,0.1,0.5c-0.1,0.1-0.1,0.3-0.1,0.4
  	c0,0.1,0.1,0.2,0.1,0.2c-0.1,0.1-0.2,0.2-0.2,0.3c0,0,0,0,0,0l-0.9,0.3l0.9,0.2c0,0,0.1,0,0.1,0c0.1,0,0.2,0,0.3,0
  	c0.4,0,0.8-0.1,1.2-0.1c0.2,0,0.3,0,0.5-0.1c0.6-0.1,1.1-0.2,1.7-0.1c1.3,0.1,2.2,0.5,3.1,1.2c0.1,0.1,0.1,0.1,0.2,0.1
  	c0,0,0.1,0,0.1,0c0.1,0,0.1,0.1,0.2,0.2l0.1,0.1c0,0,0.1,0.1,0.1,0.1c0.1,0.1,0.2,0.2,0.3,0.2c0.3,0.1,0.5,0.5,0.5,0.8
  	c0,0,0,0.1,0,0.1l-0.1,0.4l0.6-0.1c0.1,0,0.1,0,0.2,0c0.1,0,0.2-0.1,0.3,0c0.3,0,0.5,0,0.7-0.2l0.1,0.2l0.4-0.2
  	c0.2-0.1,0.4-0.2,0.6-0.3c0,0,0.1-0.1,0.1-0.1c0.3-0.2,0.4-0.3,0.6-0.1c0.1,0.1,0.3,0.1,0.4,0c0.1-0.1,0.2-0.2,0.1-0.4
  	c0,0,0-0.1,0-0.2c0,0,0-0.1,0-0.1c0,0,0.1,0,0.1,0l0.1,0l0.1-0.1c0.2,0.1,0.4,0.1,0.6,0c0.1-0.1,0.2-0.1,0.5,0.2
  	c0.1,0.1,0.3,0.2,0.5,0.3c0.5,0.2,0.7,0.4,0.8,0.8c0,0.1,0.1,0.3,0.2,0.3c0.1,0.1,0.2,0.1,0.3,0.2c0.1,0,0.1,0.1,0.2,0.1
  	c0,0,0,0.1,0,0.1c0,0,0,0.1,0,0.1c0,0,0,0,0,0.1c0,0.1,0,0.4,0.3,0.5c0,0,0.1,0,0.1,0.1c0.1,0.1,0.1,0.1,0.2,0.2
  	c0.1,0,0.2,0.2,0.2,0.2c0,0.2,0.1,0.4,0.4,0.5c0,0.1,0,0.3,0.1,0.4l0.1,0.2l0.4-0.1c0.1,0,0.2,0,0.3-0.1c0,0,0.1,0,0.1,0
  	c0,0,0.1,0,0.1,0c0,0,0.1,0,0.1,0c0,0,0,0,0,0L37.4,66l0.1,0.1c0,0,0.1,0.1,0.1,0.1c0,0,0,0.1,0,0c0.1,0.3,0.2,0.6,0.5,0.7
  	c0,0.3,0,0.5,0,0.8c0,0.1,0,0.2,0,0.3c0,0.4,0,0.7-0.2,1c-0.1,0.2-0.2,0.5-0.3,0.7L37.5,70c0,0.1,0,0.2,0,0.3c0.1,0.3,0,0.6-0.1,0.9
  	c-0.1,0.2-0.1,0.4,0,0.6l0.1,0.1c0.1,0.1,0.1,0.2,0.2,0.3c0.1,0.1,0.2,0.3,0.5,0.3c0.4-0.1,0.4-0.3,0.4-0.5c0-0.1,0.1-0.1,0.1-0.2
  	l0.2,0.1c-0.1,0.1-0.1,0.1-0.2,0.2c-0.1,0.1-0.1,0.2-0.2,0.2c0,0-0.1,0.1-0.1,0.1c0,0,0,0.1,0,0.1c-0.1,0.1-0.2,0.2-0.3,0.4
  	l-0.3,0.3l0.2,0.2c0.4,0.5,0.7,1,1,1.6c0.3,0.5,0.5,1,0.9,1.5l0.1,0.1l0.2,0l0.4,1.2l0.2,0c0,0,0.1,0,0.1,0c0,0,0,0,0,0
  	c0.4,0.2,0.6,0.5,0.7,0.9c0.1,0.4,0.2,0.8,0.3,1.2l0.1,0.3c0,0.1,0.1,0.2,0.1,0.3l0.1,0.3l0.3-0.1c0,0,0.1,0,0.1,0
  	c0.2,0,0.5,0,0.8,0.1c0.1,0,0.2,0.1,0.2,0.2c0,0.1,0.1,0.3,0.2,0.4c0.2,0.1,0.3,0.2,0.3,0.4c0,0.1,0.1,0.3,0.2,0.5
  	c0.1,0.2,0.2,0.3,0.3,0.5l0,0.1l0,0c0,0.1-0.1,0.2-0.1,0.3c-0.1,0.2,0,0.5,0.2,0.7c0.1,0.2,0.3,0.2,0.4,0.2c0,0,0,0,0,0
  	c0.1,0,0.1,0,0.2,0c0.2,0,0.5,0,0.8-0.2c0.1,0,0.3,0,0.4,0.1l0.2,0l0.1,0l0.1,0c0,0,0.1,0,0.2-0.1c0.1,0,0.3-0.1,0.3-0.2
  	c0.1,0,0.3,0.1,0.4,0c0.2-0.2,0.4-0.4,0.6-0.7c0.1-0.1,0.1-0.2,0.1-0.3c0,0,0-0.1,0-0.1c0-0.2-0.1-0.3,0-0.4
  	c0.1-0.2,0.2-0.4,0.2-0.6l0-0.1c0-0.1,0-0.1,0-0.1c0,0,0.1,0,0.1,0l0.3,0.1l0-0.3c0,0,0-0.1,0-0.1c0-0.1,0-0.2,0-0.3
  	c0-0.7,0-1.3,0.1-2c0-0.3,0.1-0.7,0.1-1l0-0.1C49.2,76.7,49.2,76.1,49,75.5z M40.6,76.5C40.6,76.5,40.5,76.5,40.6,76.5L40.6,76.5
  	L40.6,76.5z"></path>
<path fill="#1B75BB" d="M35.7,80.8c-3.3,1.5-6.8,2.3-10.6,2.3c-7.8,0-14.2-2.6-18.8-7.5C2.3,71.2,0,65,0,58.2
  	C0,50.9,2.4,44.6,6.9,40c4.4-4.4,10.4-6.6,18-6.7c0,0,4.3-0.1,8.7,1.5c4.1,1.6,9.2,5,10.3,12.7l0,0.3h-6.6l-0.1-0.2
  	c-2.6-8.1-12.1-8-12.2-8c-5.8,0-10.3,1.6-13.4,4.7c-3.4,3.4-5.3,8.3-5.2,13.7c0,5.1,1.7,9.7,4.7,13c3.3,3.6,8.1,5.5,13.9,5.5
  	c2.9,0,5.8-0.7,8.4-1.9c1.1-0.7,1.8-1.1,2.7-2l0.3-0.3c0.1-0.1,0.3-0.1,0.3,0l0.4,0.6l-0.6,0.6c0.3,0.4,0.7,1.1,0.9,1.5
  	c0.1,0.2,0.2,0.4,0.2,0.5c0.2,0.5,0.5,1,0.8,1.4l0.2,0l0.5,1.6l-0.2,0.1c-0.9,0.7-1.6,1-2.5,1.5l-0.2,0.1l0,0l-0.2,0.1
  	c-0.1,0-0.1,0.1-0.2,0.1"></path>
<path fill="#1B75BB" d="M62,0h4l10.8,24.7h-4.5l-2.5-5.9H58.1l-2.5,5.9h-4.4L62,0z M68.1,14.9l-4.2-9.8l-4.2,9.8H68.1z"></path>
<path fill="#1B75BB" d="M80.9,0.2h4l13.1,16.9V0.2h4.2v24.5h-3.6L85.2,7.2v17.4h-4.2V0.2z"></path>
<path fill="#1B75BB" d="M108.6,0.2h9.1c7.7,0,13,5.3,13,12.2v0.1c0,6.9-5.3,12.2-13,12.2h-9.1V0.2z M112.9,4.1v16.7h4.8
  	c5.1,0,8.5-3.5,8.5-8.3v-0.1c0-4.8-3.4-8.3-8.5-8.3H112.9z"></path>
<path fill="#1B75BB" d="M135.9,0.2h10.9c3.1,0,5.5,0.9,7.1,2.4c1.3,1.3,2,3.1,2,5.3V8c0,4-2.4,6.4-5.8,7.4l6.6,9.3h-5.1l-6-8.5h-5.4
  	v8.5h-4.3V0.2z M146.5,12.3c3.1,0,5-1.6,5-4.1V8.2c0-2.6-1.9-4.1-5.1-4.1h-6.3v8.2H146.5z"></path>
<path fill="#1B75BB" d="M161.2,0.2h18.2V4h-13.9v6.4h12.3v3.8h-12.3v6.6h14v3.8h-18.3V0.2z"></path>
<path fill="#1B75BB" d="M182.8,0.2h4.7l5.8,18.2l6-18.2h3.6l6,18.2l5.8-18.2h4.5l-8.5,24.7H207l-6-17.6l-6,17.6h-3.7L182.8,0.2z"></path>
</svg>
